<svg width="30" height="30" viewBox="0 0 30 30" fill="none" xmlns="http://www.w3.org/2000/svg">
<g id="box">
<path id="Vector" d="M16.95 3.71982C15.6982 3.21905 14.3018 3.21905 13.05 3.71982L4.4145 7.17731C3.99736 7.34414 3.63972 7.63202 3.38762 8.00388C3.13553 8.37574 3.00052 8.81456 3 9.26382V20.7328C2.99992 21.1826 3.13465 21.6221 3.38678 21.9945C3.63892 22.367 3.99689 22.6553 4.4145 22.8223L13.05 26.2768C14.3018 26.7776 15.6982 26.7776 16.95 26.2768L25.5855 22.8223C26.0031 22.6553 26.3611 22.367 26.6132 21.9945C26.8654 21.6221 27.0001 21.1826 27 20.7328V9.26382C26.9998 8.8143 26.8649 8.37516 26.6128 8.003C26.3607 7.63084 26.0029 7.34273 25.5855 7.17582L16.95 3.71982ZM13.608 5.11482C14.5021 4.75718 15.4994 4.75718 16.3935 5.11482L24.231 8.24981L20.8125 9.61482L11.5815 5.92482L13.608 5.11482ZM9.5625 6.73032L18.7935 10.4218L15 11.9413L5.769 8.24832L9.5625 6.73032ZM15.75 13.2553L25.5 9.35532V20.7313C25.5003 20.8814 25.4555 21.028 25.3716 21.1524C25.2876 21.2767 25.1683 21.373 25.029 21.4288L16.392 24.8833C16.182 24.9658 15.9675 25.0303 15.75 25.0753V13.2553ZM14.25 13.2553V25.0753C14.0307 25.0305 13.8159 24.9663 13.608 24.8833L4.971 21.4288C4.83197 21.3731 4.71281 21.277 4.62886 21.153C4.54492 21.0289 4.50003 20.8826 4.5 20.7328V9.35682L14.25 13.2568V13.2553Z" fill="black"/>
</g>
</svg>
