<svg width="30" height="30" viewBox="0 0 30 30" fill="none" xmlns="http://www.w3.org/2000/svg">
<g id="Call" clip-path="url(#clip0_1530_6721)">
<path id="Vector" d="M26.1746 22.125C26.1746 22.525 26.0871 22.95 25.8871 23.35C25.6871 23.75 25.4496 24.1375 25.1246 24.5C24.5746 25.1125 23.9621 25.55 23.2746 25.825C22.5996 26.1125 21.8621 26.25 21.0746 26.25C19.9246 26.25 18.6996 25.975 17.3996 25.425C16.0996 24.875 14.8121 24.1375 13.5246 23.2C12.2246 22.25 10.9996 21.2125 9.8246 20.05C8.6621 18.875 7.61213 17.65 6.68713 16.375C5.76213 15.0875 5.0246 13.8125 4.4746 12.5375C3.9371 11.25 3.66211 10.025 3.66211 8.8625C3.66211 8.1 3.79962 7.36251 4.06212 6.68751C4.33712 6.00001 4.76213 5.37501 5.36213 4.81251C6.08713 4.10001 6.87462 3.75 7.69962 3.75C8.01212 3.75 8.32464 3.8125 8.61214 3.95C8.89964 4.0875 9.16211 4.2875 9.36211 4.575L11.9746 8.25001C12.1746 8.53751 12.3246 8.78751 12.4246 9.03751C12.5246 9.27501 12.5871 9.5125 12.5871 9.725C12.5871 10 12.5121 10.2625 12.3496 10.525C12.1996 10.7875 11.9871 11.05 11.7246 11.325L10.8621 12.2125C10.7371 12.3375 10.6871 12.4875 10.6871 12.6625C10.6871 12.75 10.6871 12.825 10.7246 12.925C10.7621 13.0125 10.7871 13.0875 10.8121 13.15C11.0121 13.525 11.3621 14 11.8621 14.5875C12.3746 15.175 12.9121 15.7625 13.4996 16.3625C14.1121 16.9625 14.6996 17.5125 15.2871 18.0125C15.8746 18.5125 16.3621 18.85 16.7371 19.05C16.7996 19.075 16.8621 19.1125 16.9371 19.1375C17.0246 19.175 17.1121 19.1875 17.2246 19.1875C17.4121 19.1875 17.5621 19.125 17.6871 19L18.5496 18.1625C18.8371 17.875 19.0996 17.6625 19.3621 17.5375C19.6246 17.375 19.8746 17.3 20.1621 17.3C20.3746 17.3 20.5996 17.35 20.8496 17.45C21.0996 17.55 21.3621 17.7 21.6371 17.8875L25.3621 20.525C25.6496 20.725 25.8621 20.9625 25.9871 21.25C26.0996 21.5375 26.1621 21.8125 26.1621 22.125H26.1746Z" stroke="#1B2E3C" stroke-width="1.5" stroke-miterlimit="10"/>
</g>
<defs>
<clipPath id="clip0_1530_6721">
<rect width="30" height="30" fill="white"/>
</clipPath>
</defs>
</svg>
