<svg width="30" height="30" viewBox="0 0 30 30" fill="none" xmlns="http://www.w3.org/2000/svg">
<g id="card">
<path id="Vector" d="M19.5539 17.6784C19.3408 17.6784 19.1364 17.763 18.9857 17.9137C18.835 18.0644 18.7503 18.2688 18.7503 18.4819C18.7503 18.6951 18.835 18.8994 18.9857 19.0501C19.1364 19.2008 19.3408 19.2855 19.5539 19.2855H23.3039C23.517 19.2855 23.7214 19.2008 23.8721 19.0501C24.0228 18.8994 24.1075 18.6951 24.1075 18.4819C24.1075 18.2688 24.0228 18.0644 23.8721 17.9137C23.7214 17.763 23.517 17.6784 23.3039 17.6784H19.5539ZM2.14746 9.37479C2.14746 8.30919 2.57077 7.28723 3.32426 6.53374C4.07776 5.78024 5.09972 5.35693 6.16532 5.35693H23.8396C24.9052 5.35693 25.9272 5.78024 26.6807 6.53374C27.4342 7.28723 27.8575 8.30919 27.8575 9.37479V20.6248C27.8575 21.6904 27.4342 22.7124 26.6807 23.4658C25.9272 24.2193 24.9052 24.6426 23.8396 24.6426H6.16639C5.10079 24.6426 4.07883 24.2193 3.32534 23.4658C2.57184 22.7124 2.14853 21.6904 2.14853 20.6248V9.37479H2.14746ZM6.16532 6.96408C5.52596 6.96408 4.91278 7.21806 4.46069 7.67016C4.00859 8.12226 3.7546 8.73543 3.7546 9.37479V10.1784H26.2503V9.37479C26.2503 8.73543 25.9963 8.12226 25.5442 7.67016C25.0921 7.21806 24.479 6.96408 23.8396 6.96408H6.16532ZM3.7546 20.6248C3.7546 21.2642 4.00859 21.8773 4.46069 22.3294C4.91278 22.7815 5.52596 23.0355 6.16532 23.0355H23.8396C24.479 23.0355 25.0921 22.7815 25.5442 22.3294C25.9963 21.8773 26.2503 21.2642 26.2503 20.6248V11.7855H3.75568V20.6248H3.7546Z" fill="black"/>
</g>
</svg>
