<svg width="100" height="100" viewBox="0 0 100 100" fill="none" xmlns="http://www.w3.org/2000/svg">
<g id="Frame">
<g id="Group">
<g id="Vector">
<path d="M15.3029 20.8307C14.7278 21.9169 15.9419 22.7476 18.0186 22.6837C20.9579 22.5879 21.3732 22.6837 22.3636 23.5463C23.4179 24.5367 22.9706 22.7476 27.6032 44.984C28.0505 47.0288 28.7853 50.5751 29.2326 52.8754C31.7885 65.219 31.8762 67.0728 34.2232 68.5559C34.7261 68.8737 35.2869 69.0863 35.8565 69.2577C36.7181 69.5168 37.6132 69.647 38.5128 69.644L56.3253 69.5847C73.9291 69.4888 75.7125 69.5112 76 69C76 68.5 76 68 76 67.5C75.5 67 74.5 67.5 55.9419 67.0288C37.4754 66.9329 36.8684 66.901 36.0377 66.2939C35.5904 65.9425 34.9515 65.2716 34.6639 64.7923C34.1527 63.8978 32.8428 58.4984 33.0665 58.147C33.1304 58.0192 43.2901 57.8914 55.6543 57.8594C67.9866 57.8275 78.2103 57.6997 78.338 57.6358C78.4339 57.5719 78.7214 56.6773 78.9131 55.6549C79.1048 54.6645 79.7118 51.9489 80.223 49.6805C84.5042 30.6709 84.9834 28.3067 84.4403 27.7316C83.993 27.2204 83.2582 27.1565 77.9547 27.1565C77.5209 27.1565 77.1143 27.157 76.7335 27.1583C71.448 27.1761 71.1007 27.3576 71.3093 28.8179C71.4049 29.5507 71.4687 29.5527 76.5712 29.7112C76.585 29.7116 76.5989 29.712 76.6128 29.7125C79.4563 29.8083 81.8205 30 81.8524 30.1278C81.8524 30.2556 81.7246 31.1182 81.5329 32.0447C80.223 38.115 76.9003 53.099 76.6128 54.2172L76.2933 55.5911H54.4403C42.14 55.5911 32.5553 55.4633 32.4595 55.3035C32.2678 54.984 27.1559 30.7348 27.1559 30.1278C27.1559 29.8403 28.5936 29.7125 32.7789 29.6486C37.763 29.5527 38.4658 29.4888 38.7853 29.0096C39.0409 28.5942 39.0409 28.2748 38.7853 27.8914C38.7485 27.8324 32.5456 27.2682 32.4914 27.2204C33.1202 27.2984 37.1268 27.3052 32.4914 27.2204L26.5489 27.1565L26.1975 25.7827C25.6224 23.5783 25.239 22.8115 24.1847 21.7891C22.747 20.4153 21.7885 20.1278 18.5297 20.1278C15.9099 20.1278 15.6543 20.1917 15.3029 20.8307Z" fill="#1B2E3C"/>
<path d="M76.7335 27.1583C71.448 27.1761 71.1007 27.3576 71.3093 28.8179C71.4049 29.5507 71.4687 29.5527 76.5712 29.7112L76.6128 29.7125L32.7789 29.6486C37.763 29.5527 38.4658 29.4888 38.7853 29.0096C39.0409 28.5942 39.0409 28.2748 38.7853 27.8914C38.7485 27.8324 32.5456 27.2682 32.4914 27.2204L76.7335 27.1583Z" fill="#1B2E3C"/>
</g>
<path id="Exclude" fill-rule="evenodd" clip-rule="evenodd" d="M37.715 84.43C40.8713 84.43 43.43 81.8713 43.43 78.715C43.43 75.5587 40.8713 73 37.715 73C34.5587 73 32 75.5587 32 78.715C32 81.8713 34.5587 84.43 37.715 84.43ZM37.715 82.43C39.7667 82.43 41.43 80.7667 41.43 78.715C41.43 76.6633 39.7667 75 37.715 75C35.6633 75 34 76.6633 34 78.715C34 80.7667 35.6633 82.43 37.715 82.43Z" fill="#1B2E3C"/>
<path id="Exclude_2" fill-rule="evenodd" clip-rule="evenodd" d="M70.715 84.43C73.8713 84.43 76.43 81.8713 76.43 78.715C76.43 75.5587 73.8713 73 70.715 73C67.5587 73 65 75.5587 65 78.715C65 81.8713 67.5587 84.43 70.715 84.43ZM70.715 82.43C72.7667 82.43 74.43 80.7667 74.43 78.715C74.43 76.6633 72.7667 75 70.715 75C68.6633 75 67 76.6633 67 78.715C67 80.7667 68.6633 82.43 70.715 82.43Z" fill="#1B2E3C"/>
</g>
</g>
</svg>
