<svg width="25" height="25" viewBox="0 0 25 25" fill="none" xmlns="http://www.w3.org/2000/svg">
<g id="Group">
<path id="Vector" d="M12.0117 23.2625C18.2242 23.2625 23.2617 18.225 23.2617 12.0125C23.2617 5.79995 18.2242 0.762451 12.0117 0.762451C5.79922 0.762451 0.761719 5.79995 0.761719 12.0125C0.761719 18.225 5.79922 23.2625 12.0117 23.2625Z" stroke="#1B2E3C" stroke-width="1.5" stroke-linecap="round" stroke-linejoin="round"/>
<path id="Vector_2" d="M8.89844 14.3624C8.89844 15.5749 9.83594 16.5499 10.9859 16.5499H13.3359C14.3359 16.5499 15.1484 15.6999 15.1484 14.6374C15.1484 13.4999 14.6484 13.0874 13.9109 12.8249L10.1484 11.5124C9.41094 11.2499 8.91093 10.8499 8.91093 9.69986C8.91093 8.64986 9.72343 7.78735 10.7234 7.78735H13.0734C14.2234 7.78735 15.1609 8.76235 15.1609 9.97485" stroke="#1B2E3C" stroke-width="1.5" stroke-linecap="round" stroke-linejoin="round"/>
<path id="Vector_3" d="M12.0234 6.53735V17.7999" stroke="#1B2E3C" stroke-width="1.5" stroke-linecap="round" stroke-linejoin="round"/>
</g>
</svg>
