<svg width="30" height="30" viewBox="0 0 30 30" fill="none" xmlns="http://www.w3.org/2000/svg">
<g id="Energy" clip-path="url(#clip0_1621_13325)">
<path id="Vector" d="M19.8243 5.49993L16.3993 11.8374C16.0618 12.4874 16.3618 13.2749 17.0368 13.5124L21.7243 15.1499C22.4868 15.4249 22.7493 16.4124 22.2118 17.0374L14.4118 26.0374C13.9868 26.5374 13.2118 26.15 13.2868 25.525L14.1493 19.3374C14.2243 18.7749 13.9118 18.2624 13.3993 18.0749L8.26183 16.1875C7.61183 15.9625 7.31184 15.1875 7.62434 14.55L12.6493 4.41244C12.8368 4.02494 13.2243 3.76245 13.6618 3.76245H18.7868C19.6868 3.78745 20.2239 4.74878 19.8114 5.52378L19.8243 5.49993Z" stroke="#1B2E3C" stroke-width="1.5" stroke-miterlimit="10" stroke-linecap="round"/>
</g>
<defs>
<clipPath id="clip0_1621_13325">
<rect width="30" height="30" fill="white"/>
</clipPath>
</defs>
</svg>
