<svg width="28" height="22" viewBox="0 0 28 22" fill="none" xmlns="http://www.w3.org/2000/svg">
<g id="Group">
<path id="Vector" d="M12.4125 2.34125C12.9395 2.28013 13.4695 2.24966 14 2.25C19.83 2.25 24.5 5.87875 26.5 11C26.0159 12.2457 25.3617 13.4185 24.5562 14.485M7.15 4.14875C4.6 5.705 2.625 8.11625 1.5 11C3.5 16.1213 8.17 19.75 14 19.75C16.4152 19.7627 18.7865 19.105 20.85 17.85M11.35 8.35C11.0018 8.69825 10.7255 9.11168 10.537 9.56669C10.3486 10.0217 10.2516 10.5094 10.2516 11.0019C10.2516 11.4944 10.3486 11.9821 10.537 12.4371C10.7255 12.8921 11.0018 13.3055 11.35 13.6538C11.6982 14.002 12.1117 14.2782 12.5667 14.4667C13.0217 14.6552 13.5094 14.7522 14.0019 14.7522C14.4944 14.7522 14.9821 14.6552 15.4371 14.4667C15.8921 14.2782 16.3055 14.002 16.6538 13.6538" stroke="#1B2E3C" stroke-width="1.5" stroke-linecap="round" stroke-linejoin="round"/>
<path id="Vector_2" d="M4 1L24 21" stroke="#1B2E3C" stroke-width="1.5" stroke-linecap="round"/>
</g>
</svg>
