<svg width="22" height="24" viewBox="0 0 22 24" fill="none" xmlns="http://www.w3.org/2000/svg">
<g id="Group">
<path id="Vector" d="M8.45 3.86268L11.0375 4.9002C11.7125 5.1752 11.7125 5.61267 11.0375 5.88767L8.45 6.92519L7.4125 9.52518C7.1375 10.1752 6.7 10.1752 6.425 9.52518L5.3875 6.92519L2.8 5.88767C2.15 5.61267 2.15 5.1752 2.8 4.9002L5.3875 3.86268L6.425 1.2627C6.7 0.575195 7.1375 0.575195 7.4125 1.2627L8.45 3.86268Z" stroke="#1B2E3C" stroke-width="1.5" stroke-linecap="round" stroke-linejoin="round"/>
<path id="Vector_2" d="M17.9002 11.8002L20.4877 12.8377C21.1627 13.1127 21.1627 13.5502 20.4877 13.8252L17.9002 14.8627L16.8627 17.4627C16.5877 18.1127 16.1502 18.1127 15.8752 17.4627L14.8377 14.8627L12.2502 13.8252C11.6002 13.5502 11.6002 13.1127 12.2502 12.8377L14.8377 11.8002L15.8752 9.2002C16.1502 8.5127 16.5877 8.5127 16.8627 9.2002L17.9002 11.8002Z" stroke="#1B2E3C" stroke-width="1.5" stroke-linecap="round" stroke-linejoin="round"/>
<path id="Vector_3" d="M6.2625 17.9752L8.4875 18.8627C9.075 19.1002 9.075 19.4752 8.4875 19.7127L6.2625 20.6002L5.375 22.8252C5.1375 23.3877 4.7625 23.3877 4.525 22.8252L3.6375 20.6002L1.4125 19.7127C0.8625 19.4752 0.8625 19.1002 1.4125 18.8627L3.6375 17.9752L4.525 15.7502C4.7625 15.1627 5.1375 15.1627 5.375 15.7502L6.2625 17.9752Z" stroke="#1B2E3C" stroke-width="1.5" stroke-linecap="round" stroke-linejoin="round"/>
</g>
</svg>
