<svg width="17" height="16" viewBox="0 0 17 16" fill="none" xmlns="http://www.w3.org/2000/svg">
<g id="star">
<path id="Vector" d="M8.01825 2.67377L8.01755 2.67518L6.84541 5.01946C6.69799 5.31875 6.45813 5.56449 6.22036 5.73993C5.9813 5.91633 5.67638 6.07184 5.35003 6.12623L5.34965 6.12629L3.22336 6.47956C3.22323 6.47958 3.22311 6.4796 3.22298 6.47962C2.67267 6.57143 2.59042 6.77065 2.58658 6.78261C2.58328 6.79288 2.53238 7.00079 2.92858 7.39429L2.93039 7.3961L4.58372 9.04943C4.83612 9.30183 4.9976 9.63044 5.08527 9.93669C5.17303 10.2433 5.2092 10.6056 5.1319 10.9505L5.13192 10.9505L5.13077 10.9554L4.65757 13.0015C4.65754 13.0017 4.65751 13.0018 4.65748 13.0019C4.65746 13.002 4.65745 13.002 4.65744 13.0021C4.57905 13.3425 4.57901 13.5765 4.60517 13.718C4.62098 13.8036 4.64246 13.8398 4.65148 13.8516C4.66545 13.8567 4.70722 13.8664 4.79531 13.8553C4.9393 13.8371 5.16328 13.7657 5.46467 13.5877C5.46468 13.5877 5.46469 13.5877 5.4647 13.5877C5.46489 13.5876 5.46509 13.5875 5.46528 13.5873L7.45771 12.4079C7.45781 12.4078 7.45791 12.4078 7.458 12.4077C7.78189 12.2159 8.16103 12.1431 8.49756 12.1431C8.83488 12.1431 9.21294 12.2162 9.53723 12.4048L9.53724 12.4048L9.54212 12.4077L11.5354 13.5877L11.5362 13.5881C11.8353 13.7656 12.0578 13.8363 12.2007 13.8542C12.2914 13.8655 12.3331 13.8545 12.3461 13.8494C12.3548 13.8387 12.3777 13.8026 12.3943 13.7137C12.4206 13.5729 12.4209 13.3402 12.3427 13.0022L12.3427 13.0021L11.8693 10.9554L11.8693 10.9554L11.8682 10.9505C11.7909 10.6056 11.8271 10.2433 11.9149 9.93669C12.0025 9.63044 12.164 9.30183 12.4164 9.04944L12.8664 9.49941L12.4164 9.04943L14.0697 7.3961C14.4634 7.00244 14.4145 6.7933 14.4106 6.78124C14.407 6.7699 14.3267 6.5713 13.7771 6.47962C13.777 6.4796 13.7769 6.47958 13.7768 6.47956L11.6505 6.12629L11.6505 6.1263L11.6478 6.12585C11.3241 6.07087 11.0211 5.91452 10.7842 5.73889C10.5482 5.56393 10.3087 5.31854 10.1614 5.0195L8.98994 2.67658C8.98984 2.67638 8.98975 2.67619 8.98965 2.676C8.72398 2.14774 8.50396 2.13477 8.50089 2.13477C8.49918 2.13477 8.28071 2.14608 8.01825 2.67377ZM4.65573 13.8562C4.6558 13.8561 4.65503 13.8552 4.6532 13.8537C4.65475 13.8555 4.65565 13.8563 4.65573 13.8562ZM4.64886 13.8505C4.64699 13.8493 4.64593 13.8489 4.64587 13.849C4.64581 13.849 4.64674 13.8496 4.64886 13.8505ZM12.3507 13.8471C12.3506 13.847 12.3496 13.8475 12.3478 13.8487C12.3499 13.8478 12.3508 13.8472 12.3507 13.8471ZM12.3448 13.8509C12.3431 13.8523 12.3424 13.8531 12.3424 13.8532C12.3425 13.8532 12.3433 13.8526 12.3448 13.8509Z" fill="#FFAF70" stroke="#FFAF70" stroke-width="1.5" stroke-linecap="round" stroke-linejoin="round"/>
</g>
</svg>
