<svg width="27" height="27" viewBox="0 0 27 27" fill="none" xmlns="http://www.w3.org/2000/svg">
<g id="teenyicons:tick-circle-outline" clip-path="url(#clip0_2213_8600)">
<path id="Vector" d="M7.66536 13.4999L12.6654 17.6666C12.6654 17.6666 16.7285 12.5876 19.332 9.33325M13.4987 25.1666C11.9666 25.1666 10.4495 24.8648 9.03406 24.2785C7.61859 23.6922 6.33247 22.8328 5.24912 21.7495C4.16577 20.6661 3.30641 19.38 2.7201 17.9646C2.1338 16.5491 1.83203 15.032 1.83203 13.4999C1.83203 11.9678 2.1338 10.4507 2.7201 9.03528C3.30641 7.61981 4.16577 6.33369 5.24912 5.25034C6.33247 4.16699 7.61859 3.30763 9.03406 2.72132C10.4495 2.13502 11.9666 1.83325 13.4987 1.83325C16.5929 1.83325 19.5604 3.06242 21.7483 5.25034C23.9362 7.43826 25.1654 10.4057 25.1654 13.4999C25.1654 16.5941 23.9362 19.5616 21.7483 21.7495C19.5604 23.9374 16.5929 25.1666 13.4987 25.1666Z" stroke="#1B2E3C" stroke-width="2"/>
</g>
<defs>
<clipPath id="clip0_2213_8600">
<rect width="27" height="27" fill="white"/>
</clipPath>
</defs>
</svg>
