<svg width="114" height="87" viewBox="0 0 114 87" fill="none" xmlns="http://www.w3.org/2000/svg">
<g id="Group">
<g id="Group_2">
<path id="Vector" d="M102.248 0.291179L0.625 17.5159L12.2352 86.0143L113.858 68.7897L102.248 0.291179Z" fill="#E0E0E0"/>
<path id="Vector_2" d="M102.254 0.306624C102.254 0.306624 102.009 0.696027 101.466 1.37521C100.859 2.11777 100.053 3.10485 99.0569 4.33643C96.8654 6.96259 93.8136 10.6211 90.0555 15.1127C82.3219 24.2318 71.7449 36.7106 60.0177 50.5296L59.7732 50.8194L59.4381 50.6292C59.1846 50.4844 58.9038 50.3304 58.6231 50.1765C42.6036 41.2385 28.1144 33.1608 17.5192 27.2474C12.3484 24.3133 8.12846 21.9226 5.1129 20.202C3.71832 19.387 2.60446 18.735 1.76228 18.246C1.0016 17.7932 0.612192 17.5396 0.621248 17.5125C0.63936 17.4853 1.05594 17.6845 1.85284 18.083C2.72219 18.5358 3.86322 19.1335 5.28496 19.8851C8.33674 21.5332 12.602 23.8424 17.8362 26.6678C28.4676 32.5178 43.0111 40.514 59.0759 49.3614C59.3566 49.5154 59.6283 49.6693 59.8909 49.8142L59.3114 49.9229C71.12 36.1673 81.7695 23.7519 89.5574 14.6871C93.4061 10.2679 96.5394 6.67279 98.7852 4.10097C99.8447 2.91467 100.687 1.97288 101.33 1.25748C101.918 0.614521 102.235 0.288512 102.263 0.306624H102.254Z" fill="#EBEBEB"/>
</g>
<path id="Vector_3" d="M12.2288 86.028C12.0024 85.8922 18.0607 75.2155 25.7399 62.1662C33.4282 49.1169 39.8397 38.6485 40.0661 38.7753C40.2925 38.9021 34.2342 49.5878 26.5549 62.6371C18.8666 75.6864 12.4552 86.1548 12.2379 86.028H12.2288Z" fill="#EBEBEB"/>
<path id="Vector_4" d="M73.7017 32.1918C73.8737 32.0016 83.011 40.0431 94.0951 50.1493C105.188 60.2645 114.036 68.6139 113.855 68.804C113.683 68.9942 104.555 60.9527 93.4613 50.8466C82.3771 40.7404 73.5296 32.391 73.7017 32.1918Z" fill="#EBEBEB"/>
</g>
</svg>
