<svg width="163" height="169" viewBox="0 0 163 169" fill="none" xmlns="http://www.w3.org/2000/svg">
<g id="Group">
<g id="Group_2">
<g id="Group_3">
<path id="Vector" d="M1.20583 62.4308L158.549 61.2898L162.932 168.256L0.0195312 166.744L1.20583 62.4308Z" fill="#1B2E3C"/>
<path id="Vector_2" d="M1.20703 62.4308L75.6722 2.17404C78.8236 -0.379674 83.3333 -0.361562 86.4757 2.21026L158.55 61.2898" fill="#1B2E3C"/>
<g id="Group_4" opacity="0.3">
<path id="Vector_3" d="M1.43359 62.4308L75.8988 2.17404C79.0501 -0.379674 83.5599 -0.361562 86.7022 2.21026L158.777 61.2898" fill="#0C0C1E"/>
</g>
<path id="Vector_4" d="M0.0207695 166.744C-0.178456 166.563 12.418 152.807 28.1478 136.027C43.8867 119.246 56.7911 105.79 56.9903 105.98C57.1895 106.161 44.593 119.917 28.8542 136.697C13.1244 153.477 0.210945 166.925 0.0117188 166.744H0.0207695Z" fill="#0C0C1E"/>
<path id="Vector_5" d="M162.932 168.256C162.733 168.437 150.463 154.962 135.539 138.164C120.606 121.365 108.67 107.601 108.87 107.42C109.069 107.238 121.33 120.713 136.263 137.512C151.187 154.31 163.131 168.075 162.932 168.256Z" fill="#0C0C1E"/>
<g id="Group_5" opacity="0.5">
<path id="Vector_6" d="M158.55 61.2898L79.539 124.399L1.20703 62.4308" fill="#0C0C1E"/>
</g>
</g>
<g id="Group_6">
<path id="Vector_7" d="M9.13121 68.2717L8.88672 19.1354L146.66 17.5054L148.209 69.2045L79.5303 123.575L9.13121 68.2717Z" fill="#FAFAFA"/>
<path id="Vector_8" d="M9.12926 68.2717C9.12926 68.2717 9.573 68.6067 10.4242 69.2587C11.2755 69.9198 12.5252 70.8978 14.1643 72.1656C17.4334 74.7284 22.2419 78.4865 28.3817 83.2861C40.6522 92.9032 58.2565 106.704 79.619 123.457H79.4469C99.2336 107.782 122.706 89.1904 148.107 69.0686L148.044 69.2044C147.745 59.3427 147.437 48.9921 147.12 38.4603C146.912 31.3696 146.695 24.3696 146.495 17.4963L146.667 17.6683C91.1469 18.3022 42.1736 18.8546 8.89382 19.235L9.00248 19.1263C9.05682 34.5844 9.1021 46.864 9.12926 55.2858C9.12926 59.4967 9.14738 62.7386 9.14738 64.9301C9.14738 66.0259 9.14738 66.859 9.14738 67.4204C9.14738 67.9819 9.13833 68.2717 9.13833 68.2717C9.13833 68.2717 9.12927 67.991 9.12021 67.4386C9.12021 66.8771 9.1021 66.053 9.09305 64.9573C9.07494 62.7658 9.04777 59.5239 9.0206 55.322C8.96627 46.9002 8.88477 34.6025 8.78516 19.1263V19.0176H8.89382C42.1645 18.6101 91.1469 18.0125 146.658 17.3242H146.83V17.4963C147.039 24.3605 147.247 31.3696 147.464 38.4603C147.781 48.9921 148.089 59.3427 148.388 69.2044V69.295L148.325 69.3493C122.914 89.453 99.4238 108.035 79.628 123.693L79.5375 123.765L79.4469 123.693C58.0935 106.885 40.5073 93.0391 28.2459 83.3857C22.1333 78.559 17.3519 74.7918 14.0918 72.22C12.4708 70.9341 11.2302 69.956 10.388 69.2859C9.55488 68.6248 9.13833 68.2807 9.13833 68.2807L9.12926 68.2717Z" fill="#263238"/>
</g>
</g>
<path id="Vector_9" d="M124.882 42.2457C124.882 42.3453 103.809 42.5445 77.8282 42.7075C51.8383 42.8615 30.7656 42.9158 30.7656 42.8162C30.7656 42.7166 51.8292 42.5173 77.8282 42.3543C103.809 42.2004 124.882 42.1461 124.882 42.2457Z" fill="#263238"/>
<path id="Vector_10" d="M124.882 56.128C124.882 56.2276 103.809 56.4268 77.8282 56.5898C51.8383 56.7438 30.7656 56.7981 30.7656 56.6985C30.7656 56.5989 51.8292 56.3997 77.8282 56.2367C103.809 56.0827 124.882 56.0284 124.882 56.128Z" fill="#263238"/>
<path id="Vector_11" d="M124.882 72.1204C124.882 72.22 103.809 72.4193 77.8282 72.5823C51.8383 72.7362 30.7656 72.7906 30.7656 72.6909C30.7656 72.5913 51.8292 72.3921 77.8282 72.2291C103.809 72.0751 124.882 72.0208 124.882 72.1204Z" fill="#263238"/>
<path id="Vector_12" d="M124.881 88.1218C124.881 88.2214 104.777 88.4206 79.992 88.5655C55.1884 88.7195 35.0938 88.7647 35.0938 88.6651C35.0938 88.5655 55.1884 88.3663 79.992 88.2214C104.787 88.0675 124.881 88.0222 124.881 88.1218Z" fill="#263238"/>
<path id="Vector_13" d="M107.267 102.167C107.267 102.167 107.076 102.194 106.714 102.203C106.325 102.212 105.791 102.231 105.13 102.249C103.717 102.276 101.743 102.303 99.3067 102.348C94.3622 102.421 87.5886 102.52 80.1086 102.62C72.6104 102.747 65.8186 102.792 60.9014 102.792C58.4654 102.792 56.4912 102.783 55.0786 102.774C54.4175 102.765 53.8923 102.756 53.4938 102.756C53.1316 102.756 52.9414 102.738 52.9414 102.729C52.9414 102.72 53.1316 102.701 53.4938 102.692C53.8832 102.683 54.4175 102.665 55.0786 102.647C56.4912 102.62 58.4654 102.593 60.9014 102.547C65.8458 102.475 72.6195 102.375 80.1086 102.276C87.6067 102.149 94.3985 102.104 99.3157 102.104C101.752 102.104 103.726 102.113 105.139 102.122C105.8 102.131 106.325 102.14 106.723 102.14C107.086 102.14 107.276 102.158 107.276 102.167H107.267Z" fill="#263238"/>
<path id="Vector_14" d="M89.5284 115.66C89.5284 115.76 85.0368 115.832 79.4947 115.832C73.9526 115.832 69.4609 115.751 69.4609 115.66C69.4609 115.57 73.9526 115.488 79.4947 115.488C85.0368 115.488 89.5284 115.57 89.5284 115.66Z" fill="#263238"/>
<path id="Vector_15" d="M135.902 104.766C145.095 104.766 152.547 97.3144 152.547 88.122C152.547 78.9295 145.095 71.4775 135.902 71.4775C126.71 71.4775 119.258 78.9295 119.258 88.122C119.258 97.3144 126.71 104.766 135.902 104.766Z" fill="#263238"/>
<path id="Vector_16" d="M131.574 104.766C140.767 104.766 148.218 97.3144 148.218 88.122C148.218 78.9295 140.767 71.4775 131.574 71.4775C122.382 71.4775 114.93 78.9295 114.93 88.122C114.93 97.3144 122.382 104.766 131.574 104.766Z" fill="#455A64"/>
<path id="Vector_17" d="M133.684 80.3701V94.2072H131.113V82.5254H128.188V80.3701H133.684Z" fill="#EBEBEB"/>
</g>
</svg>
