<svg width="127" height="106" viewBox="0 0 127 106" fill="none" xmlns="http://www.w3.org/2000/svg">
<g id="Group">
<path id="Vector" d="M24.1714 0.291803L0.132812 69.5156L102.839 105.181L126.878 35.9575L24.1714 0.291803Z" fill="#EBEBEB"/>
<path id="Vector_2" d="M126.877 35.9435C126.877 35.9435 126.452 36.1789 125.6 36.5321C124.659 36.9124 123.418 37.4196 121.87 38.0444C118.51 39.3575 113.828 41.1867 108.078 43.4416C96.3052 47.9514 80.1861 54.1183 62.3282 60.9463L61.9479 61.0912L61.7305 60.7471C61.5675 60.4845 61.3864 60.2037 61.2053 59.923C50.9361 43.5322 41.6359 28.6989 34.8351 17.8592C31.5478 12.5163 28.8583 8.1696 26.9385 5.05443C26.0601 3.59646 25.3628 2.42827 24.8375 1.54986C24.3666 0.743904 24.1312 0.30923 24.1584 0.291118C24.1855 0.273007 24.4753 0.671462 25.0005 1.4412C25.5711 2.30149 26.3227 3.43346 27.2645 4.85521C29.2477 7.93415 32.0187 12.2266 35.4237 17.497C42.2879 28.3004 51.6696 43.0794 62.0384 59.4068C62.2195 59.6876 62.3916 59.9773 62.5636 60.2309L61.975 60.0317C79.8691 53.3033 96.0245 47.236 107.833 42.7986C113.629 40.6706 118.356 38.9319 121.734 37.6912C123.309 37.1388 124.568 36.686 125.528 36.351C126.397 36.0521 126.859 35.9163 126.877 35.9435Z" fill="#E0E0E0"/>
<path id="Vector_3" d="M0.134058 69.5131C-0.0017781 69.2777 11.01 62.4678 24.7384 54.3086C38.4669 46.1403 49.7141 39.7198 49.8499 39.9552C49.9858 40.1907 38.974 46.9915 25.2365 55.1598C11.508 63.319 0.260836 69.7486 0.125 69.5131H0.134058Z" fill="#E0E0E0"/>
<path id="Vector_4" d="M84.2988 50.9397C84.5523 50.8492 88.9172 62.9204 94.0337 77.8986C99.1592 92.8767 103.098 105.084 102.836 105.174C102.582 105.265 98.2174 93.1937 93.0919 78.2155C87.9754 63.2374 84.0271 51.0303 84.2897 50.9397H84.2988Z" fill="#E0E0E0"/>
</g>
</svg>
