<svg width="88" height="90" viewBox="0 0 88 90" fill="none" xmlns="http://www.w3.org/2000/svg">
<g id="Group">
<path id="Vector" d="M49.494 0.921019L0.261719 56.4507L37.6926 89.6367L86.9248 34.107L49.494 0.921019Z" fill="#EBEBEB"/>
<path id="Vector_2" d="M50.0953 1.13594C50.0953 1.13594 50.1315 1.471 50.1315 2.09585C50.1315 2.79314 50.1225 3.69871 50.1134 4.83973C50.0681 7.30289 50.0047 10.735 49.9323 14.9459C49.715 23.5488 49.4071 35.3303 49.072 48.3706V48.6422L48.7913 48.6875C48.583 48.7237 48.3566 48.76 48.1302 48.8052C35.1171 51.0239 23.3357 53.0342 14.7237 54.5013C10.4947 55.1895 7.05349 55.751 4.59033 56.1494C3.44026 56.3215 2.52563 56.4573 1.82834 56.566C1.19444 56.6565 0.859375 56.6928 0.859375 56.6656C0.859375 56.6384 1.18538 56.566 1.81023 56.4301C2.49846 56.2943 3.41309 56.1132 4.55411 55.8868C7.00821 55.434 10.4403 54.8001 14.6512 54.0304C23.2542 52.509 35.0266 50.4353 48.0215 48.1442C48.2479 48.1079 48.4743 48.0627 48.6826 48.0264L48.4019 48.3524C48.8184 35.3122 49.1897 23.5307 49.4614 14.9278C49.6244 10.7169 49.7602 7.28477 49.8599 4.82162C49.9142 3.6806 49.9685 2.76597 50.0047 2.07774C50.041 1.45289 50.0772 1.11783 50.0953 1.12689V1.13594Z" fill="#E0E0E0"/>
<path id="Vector_3" d="M38.2957 89.8548C38.1146 89.8819 36.6838 81.1522 35.1081 70.3669C33.5324 59.5725 32.4004 50.8065 32.5815 50.7794C32.7626 50.7522 34.1934 59.4728 35.7691 70.2673C37.3448 81.0526 38.4768 89.8276 38.2957 89.8548Z" fill="#E0E0E0"/>
<path id="Vector_4" d="M48.4817 31.9073C48.4908 31.7172 57.2477 32.1066 68.024 32.7767C78.8093 33.4468 87.539 34.135 87.53 34.3162C87.5209 34.4973 78.764 34.1169 67.9787 33.4468C57.1933 32.7767 48.4636 32.0885 48.4727 31.9073H48.4817Z" fill="#E0E0E0"/>
</g>
</svg>
