<svg width="47" height="47" viewBox="0 0 47 47" fill="none" xmlns="http://www.w3.org/2000/svg">
<g id="Group">
<g id="Group_2">
<path id="Vector" d="M16.2422 30.2181H31.4648L29.4092 27.8455V22.1857C29.4092 19.1248 26.9189 16.6436 23.858 16.6436C20.7972 16.6436 18.316 19.1248 18.316 22.1947V27.5829L16.2513 30.2181H16.2422Z" fill="#F89D13"/>
<path id="Vector_2" d="M21.7305 29.4663C21.7667 30.3538 22.3553 31.196 23.1703 31.5401C23.9944 31.8842 24.9996 31.7121 25.6606 31.1145C26.3217 30.5168 26.5843 29.5297 26.3217 28.6785" fill="#F89D13"/>
<path id="Vector_3" d="M24.7012 14.3342H23.207V17.5037H24.7012V14.3342Z" fill="#F89D13"/>
</g>
<path id="Vector_4" d="M46.0446 19.8039C46.0446 19.8039 45.9993 19.6681 45.9359 19.4055C45.8725 19.1157 45.782 18.7263 45.6733 18.2282C45.5827 17.703 45.3744 17.0872 45.1299 16.3537C45.0032 15.9915 44.9036 15.584 44.7224 15.1765C44.5413 14.769 44.3512 14.3343 44.1519 13.8815C43.2916 12.0885 42.042 9.96037 40.1131 7.92284C38.2023 5.8853 35.6124 3.95644 32.4248 2.6343C30.8491 1.9189 29.0923 1.50233 27.263 1.16727C25.4157 0.949935 23.4687 0.795989 21.4855 1.07672C20.4803 1.14011 19.5023 1.39366 18.488 1.60195C17.9809 1.71061 17.4919 1.90078 16.9939 2.05473C16.4958 2.20868 15.9887 2.37168 15.5087 2.59808C13.5164 3.35876 11.6328 4.55411 9.86698 5.97586C6.32619 8.8103 3.55517 13.0937 2.33265 18.029C1.71686 20.5012 1.59007 23.1455 1.89796 25.7717C2.14247 28.4069 2.95747 31.024 4.17999 33.4237L4.56941 34.1482L4.62374 34.2478L4.59657 34.3474C3.365 38.3863 2.16058 42.3436 0.99239 46.1742L0.675434 45.8844C3.96266 44.1729 7.15029 42.5066 10.2021 40.9128L10.3198 40.8494L10.4285 40.9309C13.4983 43.2945 17.0119 44.7253 20.4622 45.2867C23.9215 45.8482 27.3083 45.5131 30.3148 44.6166C33.3304 43.7201 35.9656 42.2259 38.1118 40.4419C40.258 38.667 41.9061 36.6113 43.1286 34.5738C44.333 32.5182 45.0484 30.4716 45.5646 28.6604C45.9812 26.8221 46.1895 25.2011 46.2257 23.879C46.2257 23.2179 46.2257 22.6384 46.2347 22.1222C46.1895 21.6241 46.1532 21.1985 46.1261 20.8453C46.0989 20.5193 46.0808 20.2567 46.0627 20.0666C46.0536 19.8945 46.0446 19.8039 46.0627 19.7949C46.0627 19.7949 46.0808 19.8854 46.108 20.0575C46.1351 20.2477 46.1623 20.5103 46.2076 20.8363C46.2528 21.1895 46.2981 21.6151 46.3525 22.1131C46.3525 22.6293 46.3706 23.2179 46.3796 23.879C46.3615 25.2102 46.1804 26.8402 45.7819 28.7057C45.2839 30.544 44.5866 32.6178 43.3731 34.7096C42.1506 36.7834 40.4934 38.8753 38.3291 40.6955C36.1739 42.5157 33.5024 44.0461 30.4416 44.9698C27.3898 45.8935 23.9486 46.2557 20.4259 45.6942C16.9123 45.1328 13.3353 43.6839 10.193 41.2841L10.4194 41.3022C7.36762 42.9051 4.18 44.5713 0.901827 46.2828L0.421875 46.5364L0.584871 46.0021C1.75306 42.1625 2.95747 38.2052 4.17999 34.1754L4.19812 34.3655L3.79967 33.623C2.54998 31.1598 1.71684 28.4884 1.46328 25.7988C1.15538 23.1183 1.29122 20.4107 1.91606 17.8841C3.16575 12.8401 6.00925 8.48429 9.62249 5.60457C11.4246 4.16472 13.3444 2.95125 15.3819 2.18151C15.8709 1.94607 16.3871 1.79212 16.8942 1.62912C17.4104 1.48422 17.8994 1.285 18.4156 1.17633C19.4479 0.977104 20.4531 0.714489 21.4673 0.660154C23.4868 0.388483 25.4609 0.551483 27.3355 0.777876C29.1919 1.13105 30.9759 1.56572 32.5697 2.29924C35.7935 3.65759 38.4015 5.6408 40.3214 7.71455C42.2502 9.79737 43.4908 11.9617 44.333 13.7819C44.5232 14.2437 44.7134 14.6875 44.8854 15.095C45.0666 15.5025 45.1481 15.919 45.2748 16.2903C45.5103 17.0329 45.7005 17.6577 45.7729 18.192C45.8635 18.6991 45.945 19.0885 45.9993 19.3783C46.0446 19.65 46.0717 19.7858 46.0627 19.7858L46.0446 19.8039Z" fill="#263238"/>
</g>
</svg>
